<?xml version="1.0" encoding="UTF-8" standalone="no"?>
<svg xmlns:dc="http://purl.org/dc/elements/1.1/" xmlns:cc="http://creativecommons.org/ns#" xmlns:rdf="http://www.w3.org/1999/02/22-rdf-syntax-ns#" xmlns:svg="http://www.w3.org/2000/svg" xmlns="http://www.w3.org/2000/svg" xmlns:sodipodi="http://sodipodi.sourceforge.net/DTD/sodipodi-0.dtd" xmlns:inkscape="http://www.inkscape.org/namespaces/inkscape" width="473" height="294" id="svg2" version="1.1" inkscape:version="0.48.2 r9819" sodipodi:docname="scroll.svg">
  <defs id="defs16"/>
  <sodipodi:namedview pagecolor="#ffffff" bordercolor="#666666" borderopacity="1" objecttolerance="10" gridtolerance="10" guidetolerance="10" inkscape:pageopacity="0" inkscape:pageshadow="2" inkscape:window-width="1440" inkscape:window-height="743" id="namedview14" showgrid="false" inkscape:zoom="2.0968366" inkscape:cx="261.94125" inkscape:cy="178.82197" inkscape:window-x="0" inkscape:window-y="0" inkscape:window-maximized="1" inkscape:current-layer="svg2"/>
  <metadata id="metadata10">image/svg+xml<rdf:RDF>
  <cc:Work rdf:about="">
    <dc:format>image/svg+xml</dc:format>
    <dc:type rdf:resource="http://purl.org/dc/dcmitype/StillImage"/>
  </cc:Work>
</rdf:RDF>
</metadata>
  <g id="g5" transform="matrix(0.49975937,0,0,0.45831002,0.47691021,1.2617086)">
    <title id="title7">Layer 1</title>
    <g id="layer1">
      <g id="g2873">
        <path id="path2865" d="m 786.00006,634.27295 c -6.80176,-0.99567 -28.48206,-5.62708 -48.17853,-10.29193 -32.95428,-7.80493 -37.41931,-8.39307 -55.95947,-7.37146 -13.32471,0.73425 -20.91565,0.34234 -22.41522,-1.15723 -1.24707,-1.24713 -2.35993,-7.41516 -2.4729,-13.70672 -0.11298,-6.29163 -0.92468,-13.75806 -1.80377,-16.59211 -0.87903,-2.8341 -1.12702,3.2107 -0.55109,13.4328 1.32306,23.48157 -0.12964,25.33374 -16.3313,20.8219 -6.04712,-1.68402 -15.66876,-3.64782 -21.38141,-4.36401 -13.60443,-1.70569 -52.27466,2.51275 -67.93634,7.41101 -16.3844,5.12427 -24.63531,4.88599 -37.45175,-1.0813 -11.95422,-5.56592 -15.97266,-11.09845 -14.13574,-19.46185 0.68518,-3.11963 0.42407,-7.8935 -0.58032,-10.60852 -1.7143,-4.63422 -2.01056,-4.37415 -4.83832,4.24707 -4.63092,14.11902 -11.09494,16.54858 -42.95871,16.14666 -18.21533,-0.22973 -31.03736,0.78693 -43.76169,3.46991 l -17.9975,3.79486 -6.63464,-4.90521 c -5.17087,-3.823 -10.52216,-5.24646 -24.25565,-6.45208 -39.18661,-3.44025 -88.36297,-1.04566 -114.05322,5.55358 -6.5592,1.68494 -12.7411,2.55964 -13.73756,1.94379 -0.99646,-0.61584 -4.29036,-7.6062 -7.3198,-15.53418 -3.02945,-7.92798 -5.81164,-14.41443 -6.18266,-14.41443 -0.37103,0 -2.33025,7.02283 -4.35381,15.60626 -2.57487,10.92218 -4.89732,16.25824 -7.73771,17.77839 -5.91834,3.16741 -48.072,0.2124 -70.27744,-4.92646 -26.82841,-6.20874 -32.10078,-5.95227 -42.691063,2.07691 -15.395378,11.67218 -23.831665,14.71667 -40.85659,14.74432 -11.989517,0.0195 -17.77112,-1.06543 -25.764128,-4.83478 C 3.971447,616.4447 -1.771372,604.14441 0.450416,576.48242 c 0.7551,-9.40118 2.22748,-35.64325 3.271961,-58.31567 1.044489,-22.67243 3.07201,-52.81644 4.505611,-66.98676 3.846169,-38.017 3.368019,-170.81885 -0.834881,-231.87718 C 2.871127,153.60895 1.052216,83.802518 3.526286,70.90141 5.134656,62.514516 7.246955,59.012936 14.871516,52.094304 27.388545,40.736173 52.646664,28.691274 90.830655,15.871465 120.85461,5.791288 123.70315,5.227132 152.20239,3.716634 c 16.4375,-0.871208 35.773,-2.252071 42.96776,-3.068569 9.96579,-1.130982 13.48736,-0.82761 14.7861,1.273769 1.35364,2.190247 2.33101,2.238586 4.74551,0.234718 2.35288,-1.952717 9.73217,-2.043907 32.61989,-0.40313 16.26853,1.166271 36.99921,2.13987 46.06818,2.163551 22.40106,0.05851 32.28857,1.887222 33.41101,6.179451 0.62024,2.371811 2.42197,3.203522 5.61676,2.592789 2.58701,-0.494537 13.87802,0.969467 25.09112,3.253357 11.21311,2.283882 27.55784,4.793007 36.3216,5.575836 15.66601,1.399384 15.96701,1.3367 17.89175,-3.72567 1.07669,-2.831963 4.6362,-7.056305 7.90998,-9.387436 5.63952,-4.015709 8.86917,-4.24572 61.46173,-4.377174 30.53021,-0.076324 62.92953,-0.913944 71.9985,-1.861393 28.60626,-2.988522 41.66974,4.663647 29.70459,17.400013 -4.98669,5.308014 -4.04895,9.32576 1.16632,4.997444 2.11542,-1.755615 9.38678,-2.494339 22.20697,-2.256088 12.23413,0.227348 27.68048,-1.249756 43.12409,-4.123886 18.89325,-3.516136 26.63849,-4.09082 36.05432,-2.675163 10.9461,1.645729 12.29925,2.432114 15.51538,9.01693 1.93793,3.967674 3.56799,5.734558 3.62244,3.92643 0.0545,-1.808136 1.91876,-4.93438 4.14288,-6.947189 3.40234,-3.079041 6.17883,-3.431023 17.50049,-2.218582 l 13.4566,1.441086 -1.06732,-5.830116 c -1.84442,-10.07444 1.2561,-12.042706 18.52478,-11.759716 15.33795,0.251339 15.79809,0.422131 47.98547,17.810459 43.90344,23.717613 87.66382,49.778236 96.25989,57.325691 11.97626,10.515305 11.22009,22.731234 -2.30286,37.201204 l -5.0581,5.41235 6.83929,1.28621 c 9.41291,1.7702 30.87317,12.23097 34.81354,16.96977 6.62445,7.96672 8.69287,20.10848 7.39331,43.39867 -1.91772,34.36835 -4.0943,43.87753 -14.39032,62.86938 -10.59533,19.54397 -21.60608,49.87121 -30.32556,83.52633 -9.59674,37.0411 -11.18207,66.44259 -8.33838,154.64273 1.3443,41.69476 3.25769,85.54748 4.25195,97.4505 2.94214,35.22198 0.0452,49.20672 -11.02227,53.2088 -7.88654,2.85174 -77.73151,2.87549 -97.14972,0.033 z M 424.27161,30.709373 c 0,-1.133614 -0.92749,-2.061127 -2.06113,-2.061127 -1.13361,0 -2.06113,0.927513 -2.06113,2.061127 0,1.133621 0.92752,2.061134 2.06113,2.061134 1.13363,0 2.06113,-0.927513 2.06113,-2.061134 z" inkscape:connector-curvature="0" style="fill:#eee8d5"/>
        <path id="path2863" d="m 788.06122,634.17084 c -5.66815,-1.06885 -27.66736,-6.14563 -48.88727,-11.28186 -34.99036,-8.46924 -40.45789,-9.26917 -58.7395,-8.59381 l -20.15802,0.74469 -1.47742,-14.78345 c -0.81256,-8.13092 -2.89477,-17.86975 -4.62701,-21.64191 -3.03418,-6.60699 -3.09754,-6.25403 -1.72834,9.63068 1.82709,21.19647 1.65735,27.60583 -0.79595,30.05914 -1.27741,1.27741 -6.72522,0.77228 -15.23279,-1.41235 -18.32318,-4.70526 -64.74219,-3.00086 -85.3772,3.13488 -16.8335,5.00538 -27.42371,5.41456 -36.65778,1.41639 -12.92245,-5.59504 -14.78518,-8.19654 -15.89969,-22.20514 -1.17334,-14.74903 -3.64941,-15.65241 -8.31103,-3.03235 -4.78238,12.94714 -9.6073,14.41705 -48.37799,14.73883 -20.00134,0.16602 -35.26126,1.22833 -38.78037,2.69977 -8.63037,3.60858 -16.67685,2.95147 -22.79559,-1.86151 -11.96719,-9.41339 -101.05536,-9.83686 -136.98917,-0.65113 -7.21115,1.84339 -13.77528,2.54346 -14.65248,1.56263 -0.874,-0.97718 -4.21916,-9.11915 -7.4337,-18.09314 -3.21454,-8.97406 -6.32072,-15.00287 -6.90262,-13.39734 -0.58189,1.60547 -2.95207,10.33911 -5.26705,19.40808 l -4.20903,16.48907 -26.96918,-0.35705 c -19.0866,-0.25269 -32.23702,-1.60822 -44.99234,-4.63758 -27.28545,-6.48028 -33.809831,-5.91503 -46.375924,4.01795 -13.807915,10.91449 -18.507706,12.4884 -37.41634,12.52991 C 31.566531,628.69257 22.934901,625.9776 12.485389,617.16669 1.81867,608.17261 -0.909261,599.46143 0.52402,578.97009 1.19801,569.33429 2.642131,547.0741 3.73318,529.50293 4.824241,511.93182 7.29938,479.93274 9.2335,458.39398 14.446711,400.33835 13.978629,291.37262 8.17031,210.89113 5.709281,176.79053 3.487521,131.34259 3.233069,109.89572 2.71279,66.043846 3.383269,63.326034 17.67063,51.372314 36.722626,35.432189 104.77765,9.432029 136.7205,5.889785 c 43.29844,-4.801498 72.03653,-6.4767 72.78125,-4.242558 0.96836,2.905087 6.59569,2.974636 6.59569,0.081509 0,-1.44529 4.71393,-1.7719 13.91263,-0.963951 7.65195,0.672081 29.21652,2.084812 47.92127,3.139389 18.70477,1.054581 37.10882,2.548965 40.89785,3.320839 6.43604,1.311104 6.80121,1.8246 5.55143,7.806343 -0.73584,3.521606 -1.70993,10.112968 -2.16471,14.647453 l -0.82684,8.24453 2.03583,-8.458504 c 1.11975,-4.652168 4.095,-10.353912 6.61172,-12.670532 l 4.57581,-4.212013 22.67245,4.882065 c 13.21067,2.844658 29.76874,4.906784 39.67676,4.941284 15.60962,0.05436 17.00433,-0.276505 17.00433,-4.033806 0,-2.492264 3.22669,-6.228348 8.25046,-9.55291 8.23157,-5.447407 8.31403,-5.456528 36.03971,-3.987221 16.30215,0.863922 45.64538,0.448296 70.98642,-1.005463 23.75842,-1.362984 45.54162,-1.889713 48.40716,-1.170513 2.86548,0.719189 6.24744,3.246037 7.51532,5.615223 1.93897,3.62291 1.42517,5.226379 -3.23248,10.087875 -4.17163,4.354248 -5.17304,6.929588 -4.05927,10.438911 l 1.47864,4.658638 3.75574,-4.979065 c 3.54657,-4.701866 4.76648,-4.944031 21.90936,-4.349541 12.2359,0.424324 25.20862,-0.749924 39.79559,-3.60215 22.55915,-4.411041 34.09156,-5.15509 45.26502,-2.920395 6.29468,1.258934 7.86432,3.197853 11.32629,13.990982 1.10114,3.432831 1.7602,3.008774 4.80524,-3.091698 l 3.52905,-7.070221 15.82025,0.367958 15.82032,0.367958 -1.08856,-6.707924 c -1.74903,-10.777832 3.4746,-14.409523 18.47131,-12.842064 10.54577,1.102249 18.06665,4.550774 56.7973,26.04306 55.2511,30.659782 84.30762,48.814827 89.57105,55.965523 6.02667,8.187729 3.38067,18.190094 -7.93647,30.001294 -5.04205,5.26221 -9.16742,9.84226 -9.16742,10.17794 0,0.33566 2.70478,0.0694 6.01056,-0.59182 13.90302,-2.78059 40.93561,11.89304 46.51636,25.24968 4.00543,9.58626 4.01355,35.51996 0.0183,58.10996 -2.25079,12.72613 -5.65503,22.13211 -13.24426,36.59418 -10.99079,20.94392 -28.63837,72.02852 -34.13153,98.80061 -1.86072,9.06897 -4.14362,28.08289 -5.07312,42.25317 -1.91248,29.15824 0.68469,147.21973 4.18658,190.3111 3.19257,39.28479 0.77612,53.51758 -9.94409,58.57043 -6.52515,3.0755 -78.07727,3.12519 -94.30353,0.0655 z m 18.27258,-15.52399 c -1.79773,-5.93439 -2.44244,-12.93097 -1.6369,-17.76434 1.24695,-7.48206 16.58984,-52.96704 28.46094,-84.37439 12.95068,-34.26364 15.95099,-89.57306 11.5379,-212.69892 -1.5033,-41.94403 -2.80353,-89.71074 -2.88922,-106.14827 -0.1485,-28.46039 0.1145,-30.46374 5.51221,-41.98695 3.11743,-6.65532 5.66809,-12.40854 5.66809,-12.78496 0,-0.3764 -4.50989,-0.15025 -10.02191,0.50256 -5.76008,0.68221 -13.28547,0.10987 -17.69642,-1.34585 -8.34643,-2.7546 -21.74884,-13.42238 -21.74884,-17.31131 0,-1.33156 -3.21398,-9.12761 -7.14227,-17.32453 -9.05163,-18.887508 -39.73602,-51.681125 -53.19653,-56.853168 -5.33508,-2.049919 -10.02954,-5.674934 -12.11762,-9.356995 -1.87469,-3.305862 -5.21136,-6.97551 -7.41485,-8.15477 -3.67053,-1.964439 -4.29175,-0.961472 -7.41236,11.96769 -1.87335,7.761497 -3.40606,15.922234 -3.40606,18.134987 0,5.707878 -6.01233,10.366447 -14.42792,11.179268 l -7.21399,0.696777 0.7027,-9.191551 c 0.70605,-9.235794 -1.61957,-19.856026 -7.1919,-32.84214 l -3.00128,-6.994476 -16.9834,1.305466 c -9.34082,0.717979 -21.45422,2.828804 -26.91864,4.690727 -7.46087,2.542191 -14.46789,3.126846 -28.13519,2.34758 -19.51977,-1.112968 -20.49823,-0.645073 -20.49823,9.801826 0,2.667542 -0.91876,7.266556 -2.04169,10.220024 -1.77496,4.668648 -2.60528,5.068268 -6.35785,3.059967 -7.29101,-3.902008 -10.74755,-15.552444 -9.65679,-32.548584 0.7843,-12.220627 0.37213,-15.362457 -2.14191,-16.327187 -1.71222,-0.657036 -17.2638,0.468292 -34.55908,2.500725 -30.37015,3.568909 -63.49372,3.520477 -89.03397,-0.13018 -6.5087,-0.930328 -10.21295,-0.321831 -14.28577,2.346779 l -5.49853,3.602791 8.89517,3.314987 c 9.79742,3.65123 19.74637,14.525528 10.64725,11.637589 -4.00266,-1.270393 -6.35898,0.30201 -15.02811,10.028572 -5.65466,6.344368 -11.62122,11.53521 -13.25903,11.53521 -3.31122,0 -6.99808,-8.043739 -6.99808,-15.267899 0,-4.523499 -0.99139,-4.783913 -27.31,-7.173653 -15.02047,-1.363869 -30.46777,-3.027588 -34.32727,-3.697151 l -7.0173,-1.2174 1.3511,9.857567 c 0.86487,6.309769 0.49826,10.885193 -1.01855,12.712883 -1.7883,2.154732 -1.76145,4.885651 0.10943,11.130051 2.40705,8.033943 2.19642,8.753517 -7.23764,24.72982 C 329.04926,93.50633 323.66596,100.60986 322.4306,100.24164 317.629,98.810438 310.2287,79.449918 308.57086,63.981924 304.3443,24.547735 303.41583,18.269049 301.53244,16.385649 299.34253,14.195738 251.71976,8.085783 236.60584,8.055632 l -9.378,-0.0187 -2.58122,12.497169 c -3.01137,14.57959 -6.59765,15.5942 -14.0594,3.9776 -9.34366,-14.54631 -10.25339,-15.372566 -16.37499,-14.872795 -39.06501,3.189308 -85.52647,12.096062 -96.303615,18.461601 -0.954208,0.563606 3.683345,3.211525 10.305675,5.884254 6.62232,2.672729 14.23981,7.385292 16.92778,10.472343 4.30329,4.942207 4.76635,7.103546 3.8756,18.089699 -1.2784,15.76757 -12.59345,49.687097 -27.01769,80.991877 -11.416515,24.7771 -25.641224,65.85843 -31.412197,90.71917 -8.410065,36.2297 -11.514324,67.12966 -12.622669,125.64641 -1.473591,77.79965 1.65229,102.49796 20.030087,158.26248 11.071899,33.59589 14.367989,48.82325 14.403938,66.54395 0.02881,14.2027 0.246307,14.90021 4.01722,12.88208 6.109581,-3.26971 14.809611,-2.58862 35.664251,2.79217 20.125,5.19245 54.57244,8.70411 58.52849,5.96644 2.84503,-1.96882 11.91177,-30.19098 14.90512,-46.39545 1.19885,-6.49011 3.60678,-14.55975 5.35094,-17.93256 1.74412,-3.37274 3.20045,-8.72906 3.23628,-11.90277 l 0.0651,-5.77051 4.84749,5.50385 c 4.49972,5.10895 9.45015,24.13635 9.45015,36.32263 0,2.41364 2.07863,6.32495 4.61915,8.69177 3.51221,3.27216 4.62357,6.62549 4.63755,13.99298 0.0173,9.10993 0.3266,9.65528 5.1712,9.11707 2.83408,-0.31482 34.16324,-1.44153 69.62036,-2.50366 65.01837,-1.9477 66.87845,-1.82233 78.78104,5.31042 5.70669,3.41974 17.95029,2.74188 27.96857,-1.54852 3.49011,-1.49469 15.01156,-2.62055 27.29061,-2.66681 l 21.25052,-0.0801 8.63587,-9.36914 c 4.74972,-5.15302 9.70572,-11.18182 11.01327,-13.39734 2.2439,-3.802 2.71668,-3.84204 8.41815,-0.7132 5.95124,3.26593 6.07312,3.22913 8.22937,-2.48339 3.71882,-9.85218 9.81101,-9.53034 36.93381,1.95111 23.09906,9.7782 45.69183,17.13965 70.42883,22.948 6.03028,1.41595 12.73896,4.47949 14.90821,6.80786 3.82647,4.10724 4.06793,4.12127 8.10125,0.47113 4.97522,-4.50244 5.22419,-9.88666 1.00959,-21.83216 -2.37311,-6.72607 -2.62671,-10.41595 -1.03058,-14.99463 1.16443,-3.34021 2.11712,-8.40393 2.11712,-11.25262 0,-6.12891 8.89069,-22.07721 13.23719,-23.74512 3.17376,-1.21789 4.01544,0.513 6.34637,13.05066 0.73767,3.96771 4.03131,13.82147 7.31928,21.89728 3.28796,8.07581 6.57586,19.76923 7.30646,25.98535 l 1.32836,11.30213 22.93848,1.20208 c 17.39551,0.91156 29.41339,3.01227 49.73322,8.69318 43.48907,12.15857 55.39544,15.19287 60.0863,15.31286 4.33777,0.11097 4.3703,-0.10296 1.47003,-9.67688 z M 456.98679,43.591438 c -2.56379,-3.269073 -2.49088,-3.341972 0.77819,-0.778191 3.43332,2.692596 4.52518,4.38517 2.8288,4.38517 -0.42798,0 -2.05115,-1.623138 -3.60699,-3.606979 z M 867.02826,620.32153 c 0.51526,-1.54583 -0.25763,-2.31878 -1.80347,-1.80353 -1.48791,0.49598 -3.11102,2.11915 -3.60699,3.607 -0.51532,1.54584 0.25763,2.31879 1.80346,1.80347 1.48792,-0.49598 3.11103,-2.11908 3.607,-3.60694 z M 577.82587,605.04089 c 18.97131,-2.19061 21.49481,-2.87329 15.45849,-4.18206 -12.22827,-2.65125 -45.68829,-13.99659 -59.44964,-20.1576 -7.1908,-3.21942 -13.41883,-5.85339 -13.84009,-5.85339 -0.42127,0 -1.75873,1.85498 -2.97211,4.12225 -1.58289,2.9577 -1.55121,5.34601 0.11218,8.45416 1.95893,3.66028 1.44141,5.24738 -3.33764,10.2356 l -5.65604,5.90369 4.95603,1.8352 c 2.72583,1.0094 6.34729,2.42151 8.04772,3.13806 3.58661,1.5113 24.47327,0.22309 56.6811,-3.49591 z M 33.2383,589.28345 c 5.421112,-0.004 13.073055,1.33624 17.00433,2.97882 7.910126,3.30505 7.816437,3.45306 5.152115,-8.13935 -1.042171,-4.53448 -4.452179,-26.79473 -7.577774,-49.46716 -5.226177,-37.90942 -5.64772,-45.86093 -5.24501,-98.93426 0.535694,-70.59601 3.582893,-135.32135 7.665863,-162.82929 5.829227,-39.2729 16.422577,-75.05235 40.276291,-136.03462 11.063495,-28.28391 13.031505,-35.33484 13.825945,-49.535019 0.76054,-13.594238 0.32211,-17.05835 -2.4502,-19.359161 -4.719693,-3.917 -5.683591,-2.017906 -2.822713,5.561401 2.062463,5.464081 1.809923,8.002838 -1.619179,16.276855 C 92.281357,102.26817 80.20707,111.67117 62.2393,117.22084 c -17.137325,5.29318 -30.563711,5.3353 -40.77775,0.12788 l -7.94463,-4.05041 1.427208,30.32982 c 0.784962,16.68139 2.742661,46.80122 4.350441,66.93295 7.43428,93.08843 5.74955,196.67549 -5.220219,320.96913 -2.249481,25.48792 -4.08997,50.74884 -4.08997,56.1355 l 0,9.79394 6.698669,-4.08422 c 4.204609,-2.5636 10.368507,-4.08716 16.55525,-4.09198 z m 821.68406,2.0534 c 5.09455,0 13.25641,1.52521 18.13752,3.38928 4.88104,1.86414 9.16992,3.0235 9.53082,2.57642 0.36084,-0.44708 -0.15387,-9.62421 -1.14386,-20.39361 -0.99005,-10.76941 -2.00159,-63.17365 -2.24793,-116.45383 l -0.44799,-96.87317 5.6181,-25.97342 c 7.23822,-33.46368 15.04651,-55.59344 32.6524,-92.54158 12.76319,-26.78509 19.97998,-48.67895 16.98462,-51.52663 -0.59717,-0.5677 -2.60748,1.26465 -4.4674,4.07192 -7.25837,10.95538 -16.06958,19.40796 -23.97535,22.99945 -9.05609,4.1141 -29.79815,5.14877 -36.05786,1.79868 -8.11187,-4.34137 -11.30035,-27.34655 -5.37756,-38.79996 6.41553,-12.40627 20.07391,-16.81661 21.48065,-6.93619 0.8327,5.84825 5.26441,4.81227 6.18268,-1.4453 1.41614,-9.65011 -9.6698,-14.50615 -24.19025,-10.5962 -16.89844,4.55027 -18.03845,13.96248 -13.48718,111.35118 2.59833,55.59771 3.14105,90.56161 2.07971,133.97351 -0.78979,32.30823 -1.24927,60.59723 -1.02106,62.86444 0.22821,2.2673 0.39905,12.93359 0.37958,23.703 -0.0295,16.30817 -1.62475,25.96521 -9.5448,57.78046 -5.23022,21.00983 -9.50946,39.38067 -9.50946,40.82416 0,1.95013 1.17719,1.80005 4.58094,-0.58405 2.5194,-1.76465 8.74914,-3.20855 13.84368,-3.20855 z m 41.05353,-373.23246 c 3.95734,-3.68683 4.51923,-6.05506 3.99567,-16.84073 -0.33515,-6.90285 -1.60773,-12.87975 -2.82807,-13.28203 -1.22027,-0.40228 -4.69848,1.56671 -7.72924,4.37553 -4.51313,4.18262 -5.5105,6.91544 -5.5105,15.09879 0,8.87103 2.52112,14.93856 6.20697,14.93856 0.69317,0 3.33246,-1.93057 5.86517,-4.29013 z M 845.17242,112.64212 c -0.841,-15.1604 4.34772,-22.886185 20.16779,-30.029099 6.73413,-3.040512 12.27454,-6.212204 12.31201,-7.048203 0.0891,-1.986969 -9.08301,-7.705399 -48.61096,-30.30703 -49.07068,-28.058075 -69.43201,-37.953911 -74.6712,-36.291046 -8.71448,2.765854 -4.84577,9.288406 21.85791,36.851624 29.15289,30.091255 44.6546,48.0709 51.96246,60.268454 6.07135,10.1337 12.47247,17.37256 15.36529,17.37624 1.37708,0.002 1.98963,-4.09816 1.6167,-10.82094 z m 29.45435,-1.54558 c 0.73377,-1.18725 -0.74091,-1.84132 -3.48535,-1.54583 -4.06366,0.43751 -4.75659,-0.42647 -4.75293,-5.92572 0.003,-4.310506 -0.84845,-6.110677 -2.57642,-5.447591 -3.58893,1.377182 -3.22571,7.854371 0.65821,11.738281 3.6842,3.68422 8.27917,4.21846 10.15649,1.18086 z M 67.951675,101.58702 C 73.745445,96.343735 72.734169,93.453461 62.747696,86.713669 51.559784,79.16304 49.145859,80.86734 49.145859,96.316895 l 0,11.193685 7.469597,-1.21215 c 4.108269,-0.66668 9.209572,-2.78682 11.33622,-4.71141 z m 0.855194,-21.540389 c 0.744766,-1.205048 -0.109039,-3.8078 -1.897354,-5.783859 -2.965015,-3.276291 -2.948219,-3.896088 0.190674,-7.034996 4.86454,-4.86454 1.435097,-7.122498 -5.189121,-3.416542 -7.24889,4.05545 -8.203098,10.873672 -2.118214,15.135696 5.519012,3.865662 7.179359,4.068222 9.014015,1.099701 z M 425.42444,28.846024 c -1.69043,-2.73513 -7.33621,-3.017075 -7.33621,-0.366356 0,1.040909 0.59057,3.431602 1.3124,5.312653 1.15937,3.021179 1.66861,3.063904 4.36615,0.366364 1.67957,-1.67955 2.42551,-4.070244 1.65766,-5.31266 z" inkscape:connector-curvature="0" style="fill:#b7b8a7"/>
        <path id="path2861" d="M 751.99139,624.16022 C 706.68964,612.6925 702.22131,611.93396 682.94946,612.43884 l -20.6054,0.53992 -1.47638,-13.39734 c -1.55921,-14.1496 -6.63257,-29.94568 -10.35718,-32.24762 -2.16852,-1.34021 -1.04285,23.89673 1.68994,37.88739 0.63257,3.23852 -0.0807,7.30524 -1.65302,9.42499 -2.28241,3.07708 -3.75445,3.35266 -8.4245,1.57708 -19.91503,-7.57165 -63.43072,-6.56781 -91.09173,2.10151 -20.79413,6.51709 -37.92255,4.33349 -47.13504,-6.0091 -2.72211,-3.05597 -3.45069,-5.91968 -2.48505,-9.76709 0.75141,-2.99383 0.30884,-8.64722 -0.98352,-12.56299 -3.26849,-9.90362 -8.33288,-8.33545 -11.71136,3.62647 -3.82801,13.55328 -7.48273,14.73901 -46.92499,15.22461 -19.26322,0.23718 -35.39115,1.39721 -38.78037,2.78937 -8.60925,3.53625 -16.6853,2.90203 -22.63437,-1.77747 -11.47714,-9.02795 -87.8352,-10.16663 -129.20346,-1.9267 -10.74939,2.14112 -20.21106,3.22626 -21.02591,2.41138 -3.01858,-3.01856 -11.98855,-29.60437 -11.98855,-35.53247 0,-12.3053 -3.88907,-5.6535 -8.1617,13.95965 -2.40779,11.05286 -5.15217,21.48731 -6.0986,23.18775 -2.68715,4.82794 -49.55643,3.58514 -72.30718,-1.9173 -26.49714,-6.40851 -32.654095,-5.85882 -45.167316,4.03229 -13.82074,10.92468 -18.853401,12.63641 -37.277916,12.67938 C 32.16632,626.7821 24.876489,624.66925 14.386129,616.66784 3.63879,608.47046 -1.133391,595.59259 0.467868,579.10907 19.303247,385.21655 19.770658,336.05795 4.671609,136.99379 2.860238,113.11282 1.872119,89.231627 2.475789,83.924452 5.373757,58.447088 22.009038,44.568945 72.042319,25.887892 106.42279,13.051184 126.06154,8.322706 158.87764,4.980322 c 17.30061,-1.762089 35.38142,-3.753117 40.17955,-4.424496 8.01208,-1.12109 8.89084,-0.781601 10.76991,4.16077 2.54093,6.683121 6.27034,7.021835 6.27034,0.569496 0,-4.721268 0.3205,-4.796047 17.00434,-3.967419 21.5285,1.069241 25.14187,2.22216 7.62616,2.433277 -15.22611,0.183525 -18.44712,2.219231 -18.44712,11.658791 0,8.648392 -4.40762,12.473526 -8.71367,7.562111 -1.73579,-1.979836 -4.74223,-6.728775 -6.68097,-10.553215 -3.42852,-6.763306 -3.7877,-6.917259 -13.13061,-5.628281 -5.28311,0.728874 -18.41698,2.270569 -29.1864,3.42598 -25.56058,2.74231 -82.48884,17.013191 -79.55823,19.943802 0.574669,0.574677 5.44558,1.86702 10.824234,2.871857 20.944766,3.912903 31.633636,12.620651 31.633636,25.770493 0,14.164192 -12.44984,50.699762 -30.841881,90.509272 -9.835541,21.289 -23.753632,63.27752 -29.007141,87.50967 -14.821152,68.3636 -17.556358,174.66435 -5.958641,231.57533 2.30373,11.30457 8.718361,34.59379 14.254738,51.75361 11.787659,36.53564 15.414398,55.08746 13.809372,70.63879 -1.119308,10.84503 -0.994133,11.21716 3.347191,9.94861 12.215192,-3.56928 18.101902,-3.29596 36.500912,1.69482 21.49924,5.83173 64.32103,9.63532 66.61887,5.9173 0.72035,-1.16553 4.16612,-13.5235 7.65724,-27.46216 3.49112,-13.9386 7.72954,-28.01544 9.41866,-31.28186 5.72984,-11.08032 10.31405,-3.53931 10.82997,17.81537 0.13412,5.55176 2.25329,15.60516 4.70929,22.34094 l 4.46544,12.24689 8.41662,-1.35864 c 4.62915,-0.74732 37.57843,-1.82874 73.22065,-2.4032 63.93585,-1.03058 64.9122,-0.98371 72.88293,3.49609 9.32535,5.24109 22.2612,4.74091 35.04486,-1.35516 6.49973,-3.09955 8.98605,-3.26093 18.0408,-1.17084 12.93503,2.98578 31.78379,3.14527 37.07459,0.31366 2.28198,-1.22125 5.32141,-6.8501 7.21365,-13.35925 1.79856,-6.18677 4.20542,-11.82678 5.3486,-12.53333 1.14325,-0.70654 4.37751,0.87519 7.18738,3.5149 4.31702,4.0556 5.4065,4.32867 7.02979,1.76178 1.05658,-1.67072 1.93524,-4.62818 1.95257,-6.57215 0.0174,-1.94397 1.9281,-4.54944 4.24616,-5.79004 3.47531,-1.85992 8.44638,-0.39703 28.34054,8.33985 13.26929,5.82745 32.47358,12.92969 42.67615,15.78271 22.06165,6.16931 28.76941,9.46472 15.4585,7.59448 -9.92847,-1.39502 -47.73804,-13.71038 -65.276,-21.26178 -14.96198,-6.44226 -18.19678,-5.35339 -18.21198,6.13031 -0.01,7.36127 -0.68902,9.11701 -3.35794,8.67951 -4.01886,-0.65875 -6.49176,6.93701 -3.85962,11.85522 2.31336,4.32251 15.27548,8.27918 27.04959,8.25684 4.96979,-0.009 18.94483,-1.32556 31.05561,-2.92481 14.81353,-1.95617 31.25134,-2.52063 50.2293,-1.72491 l 28.20978,1.18274 -1.33899,-24.53736 c -0.96966,-17.76965 -0.57428,-27.37982 1.4336,-34.84301 3.29034,-12.23017 8.04687,-13.72803 9.81775,-3.09168 0.66058,3.96765 3.76867,13.59589 6.90692,21.39606 3.13824,7.80011 6.15173,17.539 6.69671,21.64184 2.35779,17.75251 1.25702,16.73487 18.10126,16.73487 18.95233,0 38.8045,3.74133 76.17255,14.35541 30.07257,8.54187 48.68683,12.67089 50.91479,11.29388 0.70587,-0.43622 -0.37091,-5.67987 -2.39288,-11.65253 -2.09497,-6.18841 -3.18305,-13.52887 -2.5296,-17.06561 1.41125,-7.63825 21.01556,-65.3067 29.23431,-85.99634 3.31488,-8.34463 7.60883,-25.34091 9.54211,-37.76944 3.90076,-25.07648 5.55249,-29.7955 5.0069,-14.30423 -0.19867,5.64136 0.61322,14.37012 1.80432,19.39725 2.65326,11.19852 0.21552,34.35959 -5.763,54.75485 -2.32611,7.93536 -6.57904,24.85144 -9.45093,37.59131 -5.68518,25.21991 -5.30017,35.30438 1.61182,42.21637 4.40509,4.40509 3.64398,6.95196 -1.48883,4.9823 -1.80054,-0.69092 -4.70819,-4.68951 -6.46149,-8.88574 -3.90008,-9.33417 -2.76092,-20.75287 5.43506,-54.48322 5.51892,-22.71277 9.91138,-49.40606 7.76441,-47.18512 -0.54792,0.56684 -7.36719,18.18946 -15.15387,39.1615 -12.12763,32.66351 -14.16443,40.07221 -14.20502,51.67029 -0.0398,11.38135 0.86078,14.91302 5.64996,22.15717 l 5.69739,8.61773 18.5434,0 c 22.97442,0 35.44751,-4.82409 39.04534,-15.10132 2.00281,-5.72106 1.75232,-6.9779 -1.99914,-10.03106 -2.35889,-1.91974 -9.46839,-5.42841 -15.79895,-7.797 -10.57288,-3.95581 -11.90863,-4.04529 -16.40454,-1.09949 -2.69196,1.7638 -4.89441,5.09534 -4.89441,7.40332 0,2.30805 -0.92755,3.62317 -2.06116,2.92255 -1.1336,-0.70062 -2.06109,-3.96899 -2.06109,-7.26306 0,-10.96887 12.40698,-13.26831 32.01239,-5.93299 6.35565,2.378 11.97442,3.90491 12.48608,3.39325 0.51172,-0.51171 -0.0858,-14.28308 -1.32776,-30.60302 -1.24194,-16.31995 -2.42029,-68.16425 -2.61841,-115.20951 -0.34332,-81.50479 -0.13702,-86.70285 4.3761,-110.27047 6.40802,-33.46259 16.16998,-61.70523 34.86579,-100.87136 15.60412,-32.68936 15.68756,-32.9544 16.64697,-52.87823 1.2298,-25.53909 -0.28259,-33.16673 -8.41187,-42.42546 -16.98828,-19.34862 -39.29596,-19.70816 -64.64734,-1.04195 -7.75299,5.70853 -8.88812,7.72505 -11.966,21.25757 -4.18042,18.3799 -4.21155,38.04382 -0.22388,141.3611 1.71741,44.49719 2.42115,89.78088 1.6175,104.0871 l -1.42261,25.32324 -1.36664,-17.51965 c -0.75171,-9.63575 -1.47912,-35.14228 -1.61657,-56.68107 -0.13746,-21.53881 -1.14258,-58.25247 -2.23371,-81.58587 -1.09106,-23.33347 -2.19635,-58.57878 -2.45618,-78.32298 l -0.47241,-35.89855 6.49561,-13.87019 c 7.58093,-16.18767 6.92749,-17.25444 -9.99213,-16.31232 -8.51727,0.47426 -13.74664,-0.45418 -19.71863,-3.50085 -10.1737,-5.19023 -11.62219,-6.96269 -17.11377,-20.94176 -2.44824,-6.23209 -7.19232,-15.968597 -10.54229,-21.636719 l -6.09095,-10.305649 8.00544,8.681503 c 4.49292,4.872345 9.97564,14.085025 12.49579,20.996675 5.28179,14.48584 13.05523,21.8974 25.10107,23.93253 11.08978,1.87361 15.01031,-1.57489 6.68494,-5.8801 -3.3161,-1.71484 -9.58942,-8.51822 -13.94062,-15.11861 -4.35119,-6.60037 -11.6961,-16.638227 -16.32196,-22.306349 C 797.46478,79.53282 749.56897,29.950438 746.10779,28.545683 744.51538,27.899366 743.02252,23.478865 742.633,18.256262 741.80414,7.142721 745.75995,1.850226 754.88727,1.861246 l 6.37921,0.00771 -6.69867,4.084259 c -11.91705,7.265968 -9.89001,11.601089 19.62818,41.977867 30.52874,31.416756 41.53155,44.24218 53.02331,61.806708 7.99976,12.22728 19.83185,21.39496 28.13678,21.80083 2.97119,0.1452 14.5589,-6.56902 30.25763,-17.53198 5.81317,-4.05957 12.69971,-14.91782 12.71027,-20.040882 0.004,-2.051697 -4.73267,-8.742645 -10.52655,-14.868759 l -10.53418,-11.138397 11.55114,6.256393 c 12.16864,6.590836 17.76178,12.570938 17.76178,18.990692 0,7.873733 -7.12585,18.465803 -17.8908,26.593443 -6.09082,4.59864 -10.7248,8.71062 -10.29767,9.13776 0.42718,0.42715 5.40246,-0.29115 11.05627,-1.59621 12.37659,-2.85686 25.90277,0.80083 39.2442,10.61221 13.12305,9.65084 15.76728,17.40398 14.34186,42.05237 -1.4389,24.88278 -6.80646,43.5365 -19.01788,66.09226 -9.32031,17.21559 -24.57739,61.35783 -31.8711,92.21022 -6.82147,28.85498 -8.40869,65.18179 -6.1474,140.69751 1.12024,37.40954 3.0163,80.07495 4.21351,94.81201 2.85437,35.13684 1.25195,49.44281 -6.3946,57.08942 l -5.77508,5.77508 -38.80475,-0.13019 -38.80475,-0.13012 -48.43658,-12.26123 z m -682.236606,-8.0885 c 6.709206,-3.59064 10.724281,-15.48627 11.869637,-35.16651 1.009537,-17.34692 0.812225,-18.28186 -11.65773,-55.237 C 62.990155,504.99292 55.898271,480.93442 54.206971,472.20477 49.16005,446.15515 46.490933,393.75079 47.939606,349.15405 50.812798,260.70453 57.834393,228.55067 95.264748,132.439 123.17015,60.784965 124.13853,53.15953 106.35754,45.088638 89.164391,37.284553 46.411881,42.337066 28.31735,54.31147 19.555547,60.109749 12.045507,74.120148 12.045507,84.667465 c 0,6.132935 1.693161,8.895477 10.502171,17.135285 l 10.502169,9.82355 12.725719,-1.0215 c 14.16494,-1.13703 31.686562,-8.85953 39.68631,-17.491413 7.310371,-7.888016 6.724838,-18.074158 -1.276787,-22.211975 -7.769241,-4.017616 -7.786934,-5.152817 -0.0803,-5.152817 6.81765,0 14.508194,6.804962 14.508194,12.83754 0,6.089493 -7.519218,19.163818 -14.305374,24.873975 -8.324661,7.00475 -27.295559,13.97304 -41.726814,15.32689 -10.10553,0.94803 -12.994806,0.35097 -20.997866,-4.33914 -5.103989,-2.99113 -9.694309,-4.73764 -10.200699,-3.88112 -0.986702,1.6689 3.25898,76.20107 6.663738,116.98061 6.52438,78.14406 4.244141,181.74836 -6.794319,308.70558 -5.711811,65.69348 -5.109371,73.12756 4.923218,60.75207 3.20314,-3.95123 5.692432,-4.62213 16.819433,-4.53344 8.225483,0.0656 15.539524,1.42035 19.758537,3.65991 8.131416,4.31634 8.103966,4.47552 3.66946,-21.28363 -6.428711,-37.34308 -13.79837,-116.45941 -10.543652,-113.1904 0.470284,0.47235 1.918568,10.59763 3.21841,22.50067 2.519009,23.06699 15.516392,103.88773 18.438313,114.6536 2.972931,10.95373 0.218124,11.85015 -14.808159,4.81848 -15.900524,-7.44074 -27.144251,-7.70209 -31.741842,-0.73786 -2.503639,3.79242 -2.403019,4.90583 0.795681,8.80371 6.41328,7.81519 36.431143,10.5531 47.973734,4.37568 z M 319.52554,85.777069 c -5.3103,-6.398529 -6.64877,-14.328125 -4.45788,-26.410164 1.84152,-10.155365 1.6474,-13.103767 -1.22907,-18.666245 -2.42471,-4.688881 -3.07956,-9.447243 -2.25647,-16.396873 l 1.15958,-9.790947 -9.67593,-2.053085 C 297.74402,11.330566 286.64481,9.751617 278.40091,8.950974 263.86819,7.539597 255.29315,3.822915 266.98877,4.004624 c 10.93924,0.16996 54.37122,5.551285 55.72427,6.904373 0.74463,0.744591 0.24842,4.410751 -1.10263,8.147018 -3.14981,8.710678 -3.14221,18.38765 0.0169,21.546783 3.99371,3.993729 4.99457,2.911667 4.133,-4.468338 -0.75007,-6.424942 3.47158,-18.195137 7.39608,-20.62059 0.91568,-0.565956 9.96549,0.848816 20.11066,3.143913 10.14514,2.29509 28.1774,5.278656 40.07166,6.630112 18.85482,2.142342 21.71963,2.977249 22.3572,6.515755 1.22669,6.807869 4.04132,8.162086 8.52701,4.102631 6.01236,-5.441124 5.46619,-11.380295 -1.04654,-11.380295 -7.80758,0 -8.93277,-5.892662 -2.22668,-11.661018 6.6289,-5.701942 11.64956,-6.491417 6.73306,-1.058754 -5.15686,5.698265 -4.34631,10.65863 1.74167,10.65863 7.27344,0 6.69501,5.90213 -1.6507,16.844116 -8.60965,11.287964 -12.15991,11.382149 -14.33566,0.38028 -1.98761,-10.050812 -4.1188,-10.971886 -25.48154,-11.012856 -8.07028,-0.01548 -22.7416,-1.43515 -32.60299,-3.154823 -9.86139,-1.719696 -18.79422,-2.592461 -19.85074,-1.939507 -1.05652,0.652969 -1.9148,6.929405 -1.90729,13.947639 0.007,7.018234 -1.07184,20.180496 -2.39847,29.249466 -2.97571,20.342239 -6.20004,25.590591 -11.67151,18.99791 z M 768.36505,66.484535 C 761.06,59.015953 751.18829,51.134918 746.42792,48.97113 741.6676,46.807327 735.79755,42.263008 733.38336,38.872627 c -4.81982,-6.768867 -15.40014,-13.166 -18.55285,-11.217537 -1.10035,0.680038 -2.09003,5.123604 -2.19935,9.874603 -0.10931,4.750984 -1.26867,13.739456 -2.57641,19.974373 -1.95252,9.30941 -3.20679,11.453987 -7.0152,11.994865 -5.13769,0.72966 -5.3916,-0.07092 -4.69665,-14.806732 0.46063,-9.76754 -4.50263,-25.259636 -9.15906,-28.588806 -4.66986,-3.338745 -38.12183,-1.636795 -50.01941,2.544853 -12.33386,4.335007 -31.88171,5.424187 -40.24982,2.242638 -6.97119,-2.650421 -9.89801,-0.05718 -12.78985,11.332069 -2.92786,11.531052 -6.37842,13.767815 -9.31678,6.039383 -2.76934,-7.284042 -2.61657,-11.369568 0.42517,-11.369568 1.37446,0 4.38886,-2.359215 6.69873,-5.242676 4.02491,-5.024513 5.27173,-5.274673 29.96375,-6.011818 14.17029,-0.423027 31.32922,-2.204575 38.13092,-3.958992 13.16333,-3.395309 27.32269,-4.158607 37.90002,-2.043137 4.8321,0.966423 6.75269,2.660507 7.59436,6.698669 2.1651,10.38752 9.12561,17.349251 9.12561,9.127197 0,-7.216026 5.93616,-12.997169 13.34565,-12.997169 9.18573,0 13.44903,1.805 13.44903,5.694084 0,4.964989 10.08631,16.978355 14.25489,16.978355 2.05664,0 6.07824,1.839737 8.93682,4.088303 6.78986,5.340927 27.07508,28.777176 25.91346,29.938797 -0.49463,0.494675 -6.87629,-5.211258 -14.18134,-12.679848 z m 84.16272,-11.526459 c -9.8883,-5.841148 -17.64801,-10.950981 -17.24377,-11.355179 0.87231,-0.872322 36.25299,19.812546 36.25299,21.19487 0,1.414131 0.33893,1.589577 -19.00922,-9.839691 z M 576.7735,15.277145 c 5.08295,-6.12455 0.9303,-9.301338 -12.15863,-9.301338 -6.77039,0 -12.88306,-0.927513 -13.58368,-2.061127 -0.79858,-1.292133 3.65088,-2.061134 11.92572,-2.061134 10.16986,0 13.98242,0.86515 16.61066,3.769272 4.30914,4.761551 4.37604,9.847336 0.15088,11.468689 -5.03431,1.931847 -5.70905,1.516167 -2.94495,-1.814362 z m -92.7291,-4.89463 c 1.70044,-1.069542 14.68555,-2.458984 28.85587,-3.087669 16.48169,-0.731216 22.7937,-0.508812 17.51959,0.617302 -12.93652,2.762169 -49.97629,4.735237 -46.37546,2.470367 z" inkscape:connector-curvature="0" style="fill:#64635d"/>
      </g>
    </g>
  </g>
</svg>